PathFileType	4	(X/Y/Z)	/Users/itak/Documents/Research/Walk-IL/dataset/trc/00269_00010.trc
DataRate	CameraRate	NumFrames	NumMarkers	Units	OrigDataRate	OrigDataStartFrame	OrigNumFrames
100.000000	100.000000	4	53	mm	100.000000	335	447
Frame#	Time	RPSI			LPSI			L3			STRN			T10			C7			CLAV			RBAK			LBAK			LSHO			LUPA			LAEL			LAOL			LWTS			LWPS			LFRA			LHPS			LHTS			RSHO			RUPA			RAEL			RAOL			RWTS			RWPS			RFRA			RIFD			RHTS			RHPS			RBHD			LFHD			RFHD			LBHD			LHIP			RHIP			RASI			LKNE			LTHI			LANK			LTIP			LTOE			LMT1			LMT5			LHEE			RKNE			RTHI			RANK			RTIP			RTOE			RMT1			RMT5			RHEE			LIFD			LASI			
		X1	Y1	Z1	X2	Y2	Z2	X3	Y3	Z3	X4	Y4	Z4	X5	Y5	Z5	X6	Y6	Z6	X7	Y7	Z7	X8	Y8	Z8	X9	Y9	Z9	X10	Y10	Z10	X11	Y11	Z11	X12	Y12	Z12	X13	Y13	Z13	X14	Y14	Z14	X15	Y15	Z15	X16	Y16	Z16	X17	Y17	Z17	X18	Y18	Z18	X19	Y19	Z19	X20	Y20	Z20	X21	Y21	Z21	X22	Y22	Z22	X23	Y23	Z23	X24	Y24	Z24	X25	Y25	Z25	X26	Y26	Z26	X27	Y27	Z27	X28	Y28	Z28	X29	Y29	Z29	X30	Y30	Z30	X31	Y31	Z31	X32	Y32	Z32	X33	Y33	Z33	X34	Y34	Z34	X35	Y35	Z35	X36	Y36	Z36	X37	Y37	Z37	X38	Y38	Z38	X39	Y39	Z39	X40	Y40	Z40	X41	Y41	Z41	X42	Y42	Z42	X43	Y43	Z43	X44	Y44	Z44	X45	Y45	Z45	X46	Y46	Z46	X47	Y47	Z47	X48	Y48	Z48	X49	Y49	Z49	X50	Y50	Z50	X51	Y51	Z51	X52	Y52	Z52	X53	Y53	Z53	

336	3.35	-1134.00390625	981.3231201171875	25.33543968200684	-1132.20654296875	961.831298828125	-147.8975830078125	-1105.897338867188	1057.061157226562	-56.85255813598633	-838.4013671875	1199.083740234375	-110.2571792602539	-1102.272705078125	1170.897094726562	-50.10406112670898	-1041.24267578125	1402.6748046875	-91.67792510986328	-891.1105346679688	1305.474975585938	-114.1908264160156	-1079.554077148438	1282.229125976562	7.877700805664062	-1084.316284179688	1359.884399414062	-184.9173889160156	-1008.484375	1356.935302734375	-259.8112182617188	-1077.14111328125	1245.35546875	-310.5124816894531	-1125.6806640625	1052.817504882812	-309.6972961425781	-1153.958374023438	1045.51025390625	-229.0728759765625	-1064.734741210938	826.7484741210938	-317.4622802734375	-1130.972534179688	821.55859375	-347.5377502441406	-1136.624145507812	949.2446899414062	-324.8128051757812	-1135.393310546875	733.53515625	-349.6593627929688	-1068.937377929688	729.1602172851562	-352.722900390625	-930.51708984375	1384.800170898438	41.81918716430664	-911.6544189453125	1332.5947265625	111.5731048583984	-858.5047607421875	1079.181640625	189.5982818603516	-932.82666015625	1051.1083984375	136.9204559326172	-742.3181762695312	886.366943359375	85.68997955322266	-735.6986694335938	878.8090209960938	170.0798034667969	-816.0111083984375	1020.113098144531	187.8520050048828	-681.8908081054688	712.690185546875	72.58395385742188	-674.4280395507812	787.4891967773438	77.76511383056641	-684.194580078125	779.2330932617188	146.8672180175781	-1020.900207519531	1552.21728515625	-34.00714111328125	-868.4551391601562	1602.448974609375	-174.6679077148438	-857.8356323242188	1599.321166992188	-81.74853515625	-1037.11376953125	1547.06005859375	-180.1362762451172	-1061.413330078125	920.261474609375	-234.3430786132812	-1040.298217773438	925.1429443359375	134.4057769775391	-916.8295288085938	925.03369140625	66.51168823242188	-842.7243041992188	485.5071105957031	-201.6795196533203	-903.243408203125	612.2920532226562	-229.1703338623047	-759.0692749023438	39.58085250854492	-177.1063842773438	-809.9478759765625	258.1322937011719	-201.5929412841797	-565.827392578125	105.9977416992188	-120.9690322875977	-627.1669921875	74.62720489501953	-80.39044952392578	-641.7544555664062	75.79418182373047	-192.1231536865234	-803.8897094726562	25.61262512207031	-118.8770523071289	-1082.563842773438	450.9718017578125	88.47499084472656	-1008.631286621094	706.8600463867188	125.7646255493164	-1320.241821289062	63.85068511962891	53.81354904174805	-1120.226196289062	329.1337585449219	71.09109497070312	-1130.849487304688	51.52504348754883	-12.46037578582764	-1189.623291015625	51.6490364074707	-48.55998992919922	-1214.147827148438	45.25628662109375	70.25790405273438	-1376.061279296875	75.33526611328125	7.512412548065186	-1082.927734375	639.6380004882812	-326.1012268066406	-921.93017578125	925.1530151367188	-184.8502502441406	
337	3.36	-1144.259033203125	980.9739990234375	25.6204948425293	-1141.300903320312	960.00439453125	-147.3026580810547	-1115.230590820312	1056.583984375	-56.93523406982422	-846.6265258789062	1198.008544921875	-108.8903961181641	-1111.280395507812	1170.669311523438	-50.36733245849609	-1048.919189453125	1402.145141601562	-91.43051910400391	-898.9888916015625	1304.533447265625	-113.0404434204102	-1088.312377929688	1281.905517578125	7.834252834320068	-1091.463256835938	1359.70068359375	-185.0009765625	-1015.171630859375	1356.487915039062	-259.4544677734375	-1083.84814453125	1245.1279296875	-310.4332885742188	-1133.111450195312	1052.474609375	-308.7465515136719	-1162.643432617188	1046.275634765625	-228.4958343505859	-1073.329956054688	826.0297241210938	-312.8021240234375	-1138.656005859375	820.7077026367188	-344.3282470703125	-1144.189819335938	948.8296508789062	-322.9228820800781	-1143.361938476562	732.513671875	-345.09716796875	-1076.85400390625	727.9027709960938	-346.6014709472656	-939.0706787109375	1383.753540039062	42.72487640380859	-920.6958618164062	1331.4619140625	112.5618743896484	-868.00341796875	1077.811767578125	190.2661285400391	-942.0580444335938	1049.482543945312	137.4915008544922	-752.1843872070312	885.6345825195312	84.69137573242188	-745.1236572265625	877.4705810546875	169.0303039550781	-825.455078125	1018.713989257812	188.0383453369141	-691.8311767578125	712.0222778320312	70.09368896484375	-684.3840942382812	786.8060302734375	75.78572845458984	-693.7885131835938	778.0511474609375	144.8616485595703	-1027.96630859375	1551.667358398438	-33.60482788085938	-875.2479858398438	1601.169921875	-174.2012786865234	-864.6807250976562	1598.114624023438	-81.28053283691406	-1044.063598632812	1546.35400390625	-179.7242279052734	-1070.179443359375	918.5579833984375	-233.5560150146484	-1050.702270507812	925.7279663085938	135.3481140136719	-927.0905151367188	925.3411865234375	67.77628326416016	-848.623046875	485.2217712402344	-200.4826354980469	-910.631103515625	611.4370727539062	-227.8135070800781	-761.2581787109375	39.93581771850586	-176.9085083007812	-814.0949096679688	258.2078247070312	-200.9153289794922	-568.6552124023438	109.1517028808594	-121.5544204711914	-629.3514404296875	76.55142974853516	-80.74887084960938	-644.67578125	77.84957885742188	-192.2387390136719	-805.3641357421875	24.73807144165039	-118.4512710571289	-1091.174438476562	451.2761535644531	89.7464599609375	-1018.44580078125	707.4810180664062	127.4188232421875	-1321.509887695312	60.73383712768555	53.31472015380859	-1126.686401367188	328.8811340332031	71.52822875976562	-1131.530883789062	51.67850112915039	-12.74552822113037	-1190.505493164062	50.48831558227539	-48.83118057250977	-1215.030883789062	44.70510482788086	69.821044921875	-1377.70751953125	70.34206390380859	6.878515243530273	-1091.858276367188	638.906494140625	-318.7028503417969	-930.7852172851562	923.6329345703125	-183.7604217529297	
338	3.37	-1154.171875	980.6640625	25.90179824829102	-1150.080322265625	958.332275390625	-146.7472686767578	-1124.309326171875	1055.903564453125	-57.03774642944336	-854.7933349609375	1196.980834960938	-107.6013336181641	-1120.096801757812	1170.1806640625	-50.70200347900391	-1056.654418945312	1401.531616210938	-91.27950286865234	-906.8212280273438	1303.6435546875	-111.9683532714844	-1097.1025390625	1281.375610351562	7.680092334747314	-1098.653930664062	1359.338256835938	-185.176513671875	-1021.9052734375	1355.92431640625	-259.1910095214844	-1090.57177734375	1244.755981445312	-310.4381408691406	-1140.460571289062	1051.921508789062	-308.0604858398438	-1171.283081054688	1046.838623046875	-228.1998596191406	-1081.869018554688	825.1858520507812	-308.1248168945312	-1146.111206054688	819.6898193359375	-341.30615234375	-1151.603393554688	948.21533203125	-321.2635192871094	-1151.076049804688	731.3192138671875	-340.7182922363281	-1084.556640625	726.5279541015625	-340.4512939453125	-947.7987060546875	1382.660888671875	43.6411018371582	-929.9779663085938	1330.2685546875	113.5622253417969	-877.771240234375	1076.399169921875	191.0640716552734	-951.4607543945312	1047.797241210938	138.0369110107422	-762.21533203125	884.9221801757812	83.91264343261719	-754.817626953125	876.098876953125	168.1904144287109	-835.1671142578125	1017.275329589844	188.3957977294922	-701.9341430664062	711.3887329101562	67.78964233398438	-694.4891967773438	786.13916015625	74.02617645263672	-703.6329956054688	776.859130859375	143.0635528564453	-1035.00048828125	1551.177612304688	-33.24138641357422	-881.924560546875	1599.84521484375	-173.7261047363281	-871.4417724609375	1596.851684570312	-80.79209136962891	-1050.921142578125	1545.735595703125	-179.3754730224609	-1078.67529296875	916.8029174804688	-232.7452392578125	-1060.787963867188	926.2744140625	136.2729949951172	-936.993408203125	925.5513916015625	68.98717498779297	-854.4208984375	484.9758911132812	-199.4614410400391	-917.8517456054688	610.6806640625	-226.6345367431641	-763.9339599609375	40.21768951416016	-176.7972106933594	-818.3245849609375	258.3328247070312	-200.3846588134766	-571.9052124023438	111.8888702392578	-122.2292861938477	-631.9978637695312	78.25656890869141	-81.18341064453125	-647.9876708984375	79.56587982177734	-192.4573059082031	-807.3914184570312	23.98477554321289	-118.1228256225586	-1099.695678710938	451.5770263671875	90.98687744140625	-1028.183959960938	708.1030883789062	129.0678100585938	-1322.7021484375	57.83195114135742	52.9173583984375	-1133.036499023438	328.6415405273438	71.94318389892578	-1132.235595703125	51.82108688354492	-13.0269660949707	-1191.331420898438	49.32746887207031	-49.08747482299805	-1215.863647460938	44.19182586669922	69.38681030273438	-1379.154174804688	65.64143371582031	6.201759815216064	-1100.63818359375	638.0782470703125	-311.2939453125	-939.370361328125	922.063232421875	-182.6435852050781	
339	3.38	-1163.741088867188	980.443115234375	26.13420486450195	-1158.542236328125	956.8485717773438	-146.2825622558594	-1133.13134765625	1055.114990234375	-57.20267868041992	-862.8946533203125	1196.012451171875	-106.3878936767578	-1128.720336914062	1169.47802734375	-51.11008834838867	-1064.414794921875	1400.88623046875	-91.23761749267578	-914.5751953125	1302.828491210938	-110.9901428222656	-1105.89892578125	1280.6865234375	7.397993564605713	-1105.87109375	1358.834228515625	-185.4522552490234	-1028.675170898438	1355.260864257812	-259.0363464355469	-1097.308471679688	1244.23876953125	-310.5148010253906	-1147.723388671875	1051.155151367188	-307.6239929199219	-1179.816162109375	1047.177124023438	-228.1446533203125	-1090.312622070312	824.2185668945312	-303.4903259277344	-1153.378662109375	818.5183715820312	-338.4602355957031	-1158.878051757812	947.4004516601562	-319.8144836425781	-1158.580444335938	729.9764404296875	-336.5504150390625	-1092.097290039062	725.0603637695312	-334.3735656738281	-956.6669311523438	1381.5615234375	44.55924224853516	-939.4742431640625	1329.043701171875	114.5637435913086	-887.7936401367188	1074.970458984375	191.9738616943359	-961.0994873046875	1046.159057617188	138.5978240966797	-772.418701171875	884.2288208007812	83.36573791503906	-764.7880249023438	874.70263671875	167.5679931640625	-845.1402587890625	1015.817138671875	188.9160919189453	-712.2068481445312	710.7860717773438	65.70087432861328	-704.7371215820312	785.4871215820312	72.51006317138672	-713.7259521484375	775.6657104492188	141.4986114501953	-1042.001953125	1550.77783203125	-32.93094253540039	-888.48779296875	1598.540649414062	-173.2513580322266	-878.1266479492188	1595.602783203125	-80.28929901123047	-1057.679809570312	1545.231567382812	-179.0988464355469	-1086.889526367188	915.0078125	-231.8721313476562	-1070.582153320312	926.8419799804688	137.1648559570312	-946.5538940429688	925.7000732421875	70.19854736328125	-860.08447265625	484.8122863769531	-198.6283111572266	-924.8883056640625	610.0247192382812	-225.6388549804688	-767.271240234375	40.42995071411133	-176.7664642333984	-822.7200927734375	258.5229187011719	-199.9924468994141	-575.7144165039062	114.1015014648438	-122.9500579833984	-635.2630615234375	79.66954040527344	-81.66964721679688	-651.8460083007812	80.912109375	-192.770751953125	-810.1885375976562	23.40653228759766	-117.8975067138672	-1108.0517578125	451.9220581054688	92.08504486083984	-1037.777954101562	708.770263671875	130.6895751953125	-1323.84228515625	55.2191162109375	52.56816864013672	-1139.23876953125	328.4771423339844	72.29791259765625	-1132.943237304688	51.96419143676758	-13.29529476165771	-1192.073974609375	48.21139526367188	-49.34384918212891	-1216.6396484375	43.77496719360352	68.95191955566406	-1380.4013671875	61.3389778137207	5.422746658325195	-1109.280151367188	637.1707763671875	-304.0187377929688	-947.6743774414062	920.4552612304688	-181.4621734619141	
